<?xml version="1.0" standalone="no"?>
<!DOCTYPE svg PUBLIC "-//W3C//DTD SVG 20010904//EN"
 "http://www.w3.org/TR/2001/REC-SVG-20010904/DTD/svg10.dtd">
<svg version="1.0" xmlns="http://www.w3.org/2000/svg"
 width="500.000000pt" height="500.000000pt" viewBox="0 0 500.000000 500.000000"
 preserveAspectRatio="xMidYMid meet">
<metadata>
Created by potrace 1.14, written by Peter Selinger 2001-2017
</metadata>
<g transform="translate(0.000000,500.000000) scale(0.100000,-0.100000)"
fill="#000000" stroke="none">
<path d="M3287 4952 c-4 -6 -14 -9 -22 -5 -11 4 -13 1 -9 -11 4 -11 1 -16 -12
-16 -15 0 -16 -2 -5 -9 7 -5 10 -14 7 -20 -4 -6 -2 -11 3 -11 6 0 11 -7 11
-16 0 -8 5 -12 11 -8 6 3 15 0 20 -7 7 -12 9 -12 9 0 0 8 6 11 16 7 12 -4 15
-2 10 9 -4 11 1 15 17 15 20 1 20 1 4 11 -14 8 -16 14 -6 25 10 12 9 13 -6 8
-15 -6 -16 -3 -10 17 7 21 6 22 -8 11 -12 -10 -16 -10 -19 0 -3 9 -6 9 -11 0z"/>
<path d="M3404 4905 c-8 -20 4 -35 27 -35 24 0 90 -65 133 -133 38 -60 132
-245 166 -329 38 -93 34 -59 -6 48 -90 245 -195 419 -271 450 -40 17 -42 17
-49 -1z"/>
<path d="M4012 4678 c-22 -29 -43 -82 -72 -184 -39 -139 -37 -154 5 -34 41
119 70 186 84 194 13 8 15 36 2 36 -5 0 -13 -6 -19 -12z"/>
<path d="M3155 4500 c-78 -17 -145 -106 -145 -196 l0 -51 -52 -6 c-29 -3 -686
-50 -1460 -104 l-1407 -98 6 -65 c3 -36 6 -66 7 -66 1 -1 302 20 671 46 369
26 672 46 674 44 4 -4 -13 -109 -40 -241 -21 -101 -22 -103 -53 -107 -17 -3
-175 -15 -351 -27 -176 -12 -322 -23 -324 -24 -5 -5 85 -1264 91 -1270 2 -3
127 4 277 15 150 11 279 20 287 20 35 0 -129 -266 -277 -450 -161 -201 -382
-413 -564 -542 -108 -77 -100 -110 16 -69 275 97 562 300 859 608 l135 140
325 22 c179 12 349 24 379 28 46 5 52 4 45 -10 -14 -25 -217 -266 -291 -346
l-68 -74 -120 80 -119 80 -108 -71 c-59 -39 -108 -74 -108 -77 0 -3 56 -43
125 -89 69 -46 125 -84 125 -85 0 -8 -188 -141 -274 -196 -274 -172 -665 -341
-973 -422 -70 -19 -129 -39 -131 -45 -14 -42 354 7 693 94 378 96 622 207 838
381 l69 55 156 -75 c309 -148 610 -243 882 -276 296 -37 633 29 764 149 52 48
70 94 63 158 -9 79 -96 137 -174 117 -38 -9 -91 -69 -99 -111 -10 -55 14 -105
61 -128 l39 -20 -34 -14 c-41 -17 -183 -32 -216 -23 -23 6 -23 6 -4 31 10 14
70 152 132 308 101 252 115 282 133 278 11 -3 52 -16 90 -30 96 -34 252 -66
361 -73 107 -7 144 0 144 26 0 16 -13 18 -142 24 -115 5 -164 12 -248 36 -197
56 -197 58 1 63 173 5 234 16 254 48 18 29 -14 33 -137 17 -257 -33 -252 -35
-125 33 79 43 110 72 100 96 -9 23 -35 16 -98 -27 -64 -43 -148 -89 -164 -89
-5 0 8 49 30 109 31 90 36 111 25 121 -18 14 -39 -13 -91 -118 -21 -45 -42
-82 -45 -82 -8 0 -30 148 -30 197 0 73 -33 86 -51 21 -11 -42 -7 -71 27 -198
l7 -25 -22 20 c-25 22 -126 182 -148 233 -11 26 -19 33 -36 30 -57 -8 -14
-115 101 -255 l53 -64 -43 28 c-119 76 -184 135 -257 231 -42 54 -66 57 -58 5
11 -68 192 -225 354 -307 l52 -26 -36 -82 c-128 -296 -208 -517 -200 -555 5
-25 5 -25 -52 -18 -131 15 -351 73 -546 142 -155 55 -516 213 -544 239 -2 1
14 18 35 36 144 122 339 332 438 471 43 61 111 185 104 192 -1 1 -248 -15
-548 -36 -300 -21 -551 -39 -559 -39 -8 0 12 28 45 63 33 34 80 86 105 116
l46 54 329 23 c181 13 362 30 402 38 245 50 335 180 333 486 -1 136 -45 788
-55 797 -3 3 -293 -14 -643 -39 -351 -25 -639 -45 -640 -44 -1 1 82 85 183
188 l186 187 656 46 c362 25 672 51 691 57 51 16 109 74 122 121 12 46 5 101
-18 136 l-15 24 36 -6 c45 -7 120 -50 229 -129 45 -32 64 -43 42 -23 -114 102
-248 185 -300 185 -14 0 -39 10 -54 21 -34 25 -94 38 -136 29z m-631 -942 c27
-281 45 -631 36 -696 -23 -166 -95 -262 -218 -291 -38 -9 -1283 -103 -1289
-98 -2 3 -22 271 -20 273 1 1 243 19 537 39 453 32 541 40 576 56 45 21 64 52
64 105 0 73 -49 124 -119 124 -76 0 -111 -31 -126 -113 -5 -27 -13 -38 -29
-42 -25 -5 -909 -66 -912 -62 -1 1 -4 58 -6 127 l-3 125 530 37 c292 20 547
42 568 48 93 27 102 166 15 220 -85 52 -188 -8 -188 -110 0 -16 -3 -30 -7 -30
-5 0 -214 -14 -466 -31 -251 -18 -459 -30 -462 -27 -7 7 -28 288 -22 294 3 4
1364 105 1514 113 19 1 22 -5 27 -61z"/>
<path d="M4135 4381 c-16 -10 -41 -31 -55 -47 -20 -22 -15 -20 25 11 28 22 54
43 60 47 16 14 1 9 -30 -11z"/>
<path d="M4881 4214 c-1 -29 -10 -35 -33 -23 -17 9 -18 7 -12 -15 5 -23 3 -26
-22 -27 -28 0 -28 -1 -6 -11 28 -14 28 -23 0 -42 l-22 -16 28 0 c25 0 28 -3
23 -25 -4 -25 -4 -25 14 -9 21 19 21 18 36 -10 10 -19 11 -18 17 2 8 23 21 28
31 12 12 -19 26 -11 15 9 -15 28 -13 31 18 32 l27 0 -23 16 -24 17 24 18 23
18 -29 0 c-26 0 -28 2 -21 27 6 27 6 27 -14 9 -23 -21 -22 -21 -38 14 -11 23
-12 23 -12 4z"/>
<path d="M4360 4155 c-197 -28 -213 -34 -75 -27 176 9 299 9 363 -1 44 -8 52
-6 52 7 0 8 -9 20 -19 26 -27 14 -205 11 -321 -5z"/>
<path d="M4118 4113 c6 -2 18 -2 25 0 6 3 1 5 -13 5 -14 0 -19 -2 -12 -5z"/>
<path d="M4120 3968 c3 -3 50 -39 105 -81 102 -76 165 -133 165 -148 0 -5 7
-9 15 -9 44 0 -12 62 -122 137 -86 58 -173 112 -163 101z"/>
<path d="M3445 3882 c-217 -114 -359 -220 -424 -319 -30 -45 -40 -86 -23 -97
13 -8 26 7 56 67 50 99 211 231 441 361 138 77 108 70 -50 -12z"/>
<path d="M3911 3914 c0 -11 3 -14 6 -6 3 7 2 16 -1 19 -3 4 -6 -2 -5 -13z"/>
<path d="M3162 3898 c-24 -11 -42 -22 -39 -24 3 -3 27 6 54 20 57 30 47 33
-15 4z"/>
<path d="M3924 3835 c4 -27 9 -92 13 -142 6 -88 14 -112 27 -78 6 16 -32 256
-41 265 -3 3 -3 -17 1 -45z"/>
<path d="M3406 3689 c-14 -17 -26 -35 -26 -41 0 -6 1 -9 3 -7 2 2 15 21 30 42
34 45 29 49 -7 6z"/>
<path d="M3689 3526 c-88 -19 -171 -53 -242 -100 -165 -110 -330 -430 -383
-745 -19 -106 -15 -367 6 -435 10 -35 14 -37 38 -31 15 3 81 9 147 12 184 8
380 -34 550 -120 150 -75 310 -222 403 -372 13 -22 26 -41 27 -43 14 -17 220
143 358 278 122 117 206 234 255 353 204 490 -15 919 -578 1133 -182 70 -436
100 -581 70z m340 -250 c42 -22 63 -61 63 -116 -1 -48 0 -50 92 -142 51 -51
110 -119 131 -150 21 -32 41 -58 45 -58 14 0 85 71 75 76 -59 27 -133 76 -145
96 -11 21 -12 31 -2 52 10 22 18 26 55 26 82 0 227 -96 227 -151 0 -42 -53
-112 -111 -149 -30 -19 -56 -35 -58 -36 -6 -5 44 -85 83 -134 19 -25 68 -68
108 -95 79 -55 96 -85 57 -105 -52 -29 -216 31 -266 96 -14 20 -45 73 -68 120
-41 82 -42 83 -55 59 -29 -55 -95 -51 -239 15 -126 58 -151 73 -169 102 -13
22 -14 32 -4 52 17 38 45 33 153 -23 52 -27 124 -58 162 -70 37 -11 76 -25 87
-31 32 -17 24 6 -10 30 -33 24 -37 37 -16 54 24 18 -36 147 -101 215 -49 52
-54 54 -64 37 -25 -42 -85 -98 -139 -131 -140 -85 -439 -172 -502 -147 -56 23
-16 95 58 107 85 13 224 47 224 54 0 4 -11 18 -25 31 -14 13 -31 44 -39 68
l-12 45 -65 1 c-57 1 -64 3 -67 22 -4 31 32 56 95 66 36 5 105 31 183 68 135
65 200 76 259 46z m-156 -578 c51 -29 157 -78 235 -108 96 -37 141 -60 140
-69 -4 -21 -68 -51 -110 -51 -21 0 -60 8 -87 19 l-49 18 -22 -56 c-49 -129
-124 -231 -170 -231 -23 0 -77 44 -85 70 -9 28 10 57 43 63 23 5 41 24 86 93
31 48 56 90 56 93 0 3 -25 17 -56 30 -58 25 -96 65 -115 120 -12 34 0 61 27
61 7 0 56 -24 107 -52z m-105 -132 c12 -61 -64 -159 -133 -172 -75 -14 -203
25 -226 68 -16 30 23 60 69 52 47 -7 144 16 209 50 55 29 76 29 81 2z m407
-180 c17 -27 58 -79 93 -116 65 -69 72 -91 46 -128 -20 -29 -75 -29 -120 -1
-62 38 -121 207 -95 272 16 40 40 31 76 -27z"/>
<path d="M3902 3185 c-32 -14 -32 -15 -18 -42 8 -15 25 -38 39 -51 l24 -23 27
31 c31 37 34 75 7 90 -25 13 -39 12 -79 -5z"/>
<path d="M3748 3117 c-16 -6 -28 -15 -28 -20 0 -10 68 -115 79 -122 4 -2 22 5
39 15 l31 19 -34 52 c-19 28 -35 55 -35 60 0 11 -17 10 -52 -4z"/>
<path d="M2960 3441 c0 -23 -19 -28 -39 -8 -10 10 -11 7 -6 -15 7 -26 5 -28
-21 -28 l-28 0 22 -16 c22 -15 22 -17 6 -35 -16 -18 -16 -19 9 -19 20 0 24 -4
20 -20 -6 -22 11 -27 23 -8 5 8 12 2 20 -17 7 -17 13 -23 14 -15 0 8 4 22 10
30 7 12 12 11 31 -5 24 -21 24 -21 3 30 -5 11 1 15 22 15 l28 0 -22 16 -22 15
22 20 23 20 -29 -6 c-26 -6 -28 -4 -22 20 6 24 -7 35 -19 15 -9 -15 -25 -12
-25 4 0 8 -4 18 -10 21 -5 3 -10 -3 -10 -14z"/>
<path d="M3862 1144 c-12 -8 -22 -22 -22 -30 0 -20 13 -17 28 6 14 22 51 27
70 8 23 -23 12 -50 -48 -112 -33 -35 -60 -66 -60 -69 0 -4 34 -7 75 -7 43 0
75 4 75 10 0 6 -25 10 -55 10 -30 0 -55 3 -55 6 0 3 23 27 50 54 38 37 50 56
50 79 0 33 -30 61 -65 61 -11 0 -31 -7 -43 -16z"/>
<path d="M4025 1135 c-21 -20 -25 -34 -25 -85 0 -51 4 -65 25 -85 30 -31 73
-32 103 -5 19 18 22 32 22 90 0 62 -2 70 -26 89 -35 28 -69 26 -99 -4z m87
-12 c24 -21 26 -124 2 -147 -20 -21 -53 -20 -76 1 -26 24 -25 116 2 143 24 24
47 25 72 3z"/>
<path d="M4200 1135 c-29 -31 -18 -46 13 -17 13 12 31 22 39 22 18 0 48 -26
48 -42 0 -5 -27 -38 -60 -72 -33 -35 -60 -68 -60 -74 0 -8 23 -12 70 -12 40 0
70 4 70 10 0 6 -26 10 -57 10 l-57 0 54 55 c41 42 53 61 53 85 0 58 -70 80
-113 35z"/>
<path d="M4372 1144 c-32 -22 -17 -36 18 -16 23 13 34 14 47 6 25 -16 22 -47
-4 -59 -24 -10 -31 -25 -13 -25 13 0 50 -37 50 -49 0 -17 -31 -41 -53 -41 -11
0 -31 10 -44 22 -19 18 -23 19 -23 5 0 -22 38 -47 72 -47 46 0 79 51 58 90 -6
11 -16 20 -22 20 -6 0 -4 8 5 18 23 26 21 58 -5 76 -29 20 -58 20 -86 0z"/>
<path d="M1810 584 l0 -115 -36 28 c-29 21 -50 28 -98 31 -53 3 -66 0 -103
-24 -155 -102 -88 -344 96 -344 44 0 88 18 110 44 20 24 31 19 31 -14 0 -25 4
-30 25 -30 l25 0 0 270 0 270 -25 0 -25 0 0 -116z m-59 -140 c84 -80 39 -219
-75 -231 -59 -7 -108 22 -130 77 -21 52 -20 65 4 116 38 78 139 97 201 38z"/>
<path d="M784 520 c-31 -12 -64 -59 -64 -89 0 -52 17 -65 155 -118 41 -15 51
-24 53 -45 6 -52 -82 -77 -150 -42 -27 14 -32 14 -45 1 -19 -19 -9 -35 33 -53
99 -41 214 6 214 88 0 53 -29 80 -116 108 -63 20 -94 41 -94 62 0 4 9 17 20
28 23 23 84 27 124 9 20 -9 29 -9 41 1 23 19 18 30 -20 46 -37 15 -118 18
-151 4z"/>
<path d="M1152 509 c-103 -51 -133 -192 -60 -284 45 -58 148 -82 221 -51 105
43 143 199 71 286 -58 69 -152 88 -232 49z m149 -44 c120 -62 72 -255 -63
-255 -97 0 -167 106 -124 188 16 30 53 66 76 75 29 11 81 7 111 -8z"/>
<path d="M2030 507 c-101 -53 -122 -205 -42 -291 54 -57 149 -73 221 -37 52
27 66 45 46 61 -12 10 -23 8 -58 -9 -51 -25 -97 -27 -138 -6 -27 14 -69 68
-69 88 0 4 68 7 150 7 l150 0 0 38 c0 131 -141 212 -260 149z m149 -42 c24
-12 61 -67 61 -89 0 -3 -56 -6 -125 -6 -69 0 -125 3 -125 6 0 21 37 77 59 89
34 19 95 19 130 0z"/>
<path d="M2350 345 l0 -185 25 0 25 0 0 103 c0 130 12 172 53 197 38 24 68 25
105 6 43 -22 52 -51 54 -181 l3 -120 28 -3 29 -4 -4 134 c-3 117 -6 137 -26
169 -43 70 -138 90 -206 44 l-36 -24 0 24 c0 20 -5 25 -25 25 l-25 0 0 -185z"/>
<path d="M2834 511 c-64 -29 -97 -81 -102 -155 -4 -72 15 -114 72 -160 65 -53
172 -47 240 13 73 64 72 207 -1 273 -53 48 -140 60 -209 29z m145 -49 c120
-65 74 -252 -62 -252 -77 0 -137 58 -137 133 0 106 105 169 199 119z"/>
<path d="M3180 418 c0 -137 9 -174 55 -218 30 -29 43 -34 93 -38 52 -4 61 -1
90 23 l32 27 0 -26 c0 -21 5 -26 25 -26 l25 0 0 185 0 185 -25 0 -25 0 0 -110
c0 -123 -13 -168 -54 -196 -34 -21 -101 -14 -130 15 -19 19 -22 36 -26 154
l-5 132 -27 3 -28 3 0 -113z"/>
<path d="M3600 345 l0 -185 24 0 c24 0 24 1 28 113 3 99 6 116 27 146 13 18
39 39 57 47 29 12 54 39 54 58 0 21 -84 -8 -122 -42 -17 -14 -18 -13 -18 16 0
27 -4 32 -25 32 l-25 0 0 -185z"/>
<path d="M3937 509 c-91 -48 -123 -179 -64 -267 33 -51 91 -82 152 -82 50 0
77 10 113 43 l22 20 0 -32 c0 -29 3 -32 28 -29 l27 3 0 180 0 180 -25 0 c-19
0 -26 -6 -31 -30 -4 -16 -7 -25 -8 -19 0 6 -18 20 -40 32 -49 28 -122 28 -174
1z m144 -44 c120 -62 72 -255 -63 -255 -97 0 -157 110 -110 200 33 62 111 86
173 55z"/>
</g>
</svg>
